HIERARCHY
ROOT Hips
{
	OFFSET 0.000000 0.000000 0.000000
	CHANNELS 6 Xposition Yposition Zposition Zrotation Yrotation Xrotation 
	JOINT LHipJoint
	{
		OFFSET 0.000000 0.000000 0.000000
		CHANNELS 3 Zrotation Yrotation Xrotation
		JOINT LeftUpLeg
		{
			OFFSET 1.363060 -1.794630 0.839290
			CHANNELS 3 Zrotation Yrotation Xrotation
			JOINT LeftLeg
			{
				OFFSET 2.448110 -6.726130 0.000000
				CHANNELS 3 Zrotation Yrotation Xrotation
				JOINT LeftFoot
				{
					OFFSET 2.562200 -7.039590 0.000000
					CHANNELS 3 Zrotation Yrotation Xrotation
					JOINT LeftToeBase
					{
						OFFSET 0.157640 -0.433110 2.322550
						CHANNELS 3 Zrotation Yrotation Xrotation
						End Site
						{
							OFFSET 0.000000 0.000000 0.000000
						}
					}
				}
			}
		}
	}
	JOINT RHipJoint
	{
		OFFSET 0.000000 0.000000 0.000000
		CHANNELS 3 Zrotation Yrotation Xrotation
		JOINT RightUpLeg
		{
			OFFSET -1.305520 -1.794630 0.839290
			CHANNELS 3 Zrotation Yrotation Xrotation
			JOINT RightLeg
			{
				OFFSET -2.542530 -6.985550 0.000000
				CHANNELS 3 Zrotation Yrotation Xrotation
				JOINT RightFoot
				{
					OFFSET -2.568260 -7.056230 0.000000
					CHANNELS 3 Zrotation Yrotation Xrotation
					JOINT RightToeBase
					{
						OFFSET -0.164730 -0.452590 2.363150
						CHANNELS 3 Zrotation Yrotation Xrotation
						End Site
						{
							OFFSET 0.000000 0.000000 0.000000
						}
					}
				}
			}
		}
	}
	JOINT LowerBack
	{
		OFFSET 0.000000 0.000000 0.000000
		CHANNELS 3 Zrotation Yrotation Xrotation
		JOINT Spine
		{
			OFFSET 0.028270 2.035590 -0.193380
			CHANNELS 3 Zrotation Yrotation Xrotation
			JOINT Spine1
			{
				OFFSET 0.056720 2.048850 -0.042750
				CHANNELS 3 Zrotation Yrotation Xrotation
				JOINT Neck
				{
					OFFSET 0.000000 0.000000 0.000000
					CHANNELS 3 Zrotation Yrotation Xrotation
					JOINT Neck1
					{
						OFFSET -0.054170 1.746240 0.172020
						CHANNELS 3 Zrotation Yrotation Xrotation
						JOINT Head
						{
							OFFSET 0.104070 1.761360 -0.123970
							CHANNELS 3 Zrotation Yrotation Xrotation
							End Site
							{
								OFFSET 0.000000 0.000000 0.000000
							}
						}
					}
				}
				JOINT LeftShoulder
				{
					OFFSET 0.000000 0.000000 0.000000
					CHANNELS 3 Zrotation Yrotation Xrotation
					JOINT LeftArm
					{
						OFFSET 3.362410 1.200890 -0.311210
						CHANNELS 3 Zrotation Yrotation Xrotation
						JOINT LeftForeArm
						{
							OFFSET 4.983000 -0.000000 -0.000000
							CHANNELS 3 Zrotation Yrotation Xrotation
							JOINT LeftHand
							{
								OFFSET 3.483560 -0.000000 -0.000000
								CHANNELS 3 Zrotation Yrotation Xrotation
								JOINT LeftFingerBase
								{
									OFFSET 0.000000 0.000000 0.000000
									CHANNELS 3 Zrotation Yrotation Xrotation
									JOINT LeftHandIndex1
									{
										OFFSET 0.715260 -0.000000 -0.000000
										CHANNELS 3 Zrotation Yrotation Xrotation
										End Site
										{
											OFFSET 0.000000 0.000000 0.000000
										}
									}
								}
								JOINT LThumb
								{
									OFFSET 0.000000 0.000000 0.000000
									CHANNELS 3 Zrotation Yrotation Xrotation
									End Site
									{
										OFFSET 0.000000 0.000000 0.000000
									}
								}
							}
						}
					}
				}
				JOINT RightShoulder
				{
					OFFSET 0.000000 0.000000 0.000000
					CHANNELS 3 Zrotation Yrotation Xrotation
					JOINT RightArm
					{
						OFFSET -3.136600 1.374050 -0.404650
						CHANNELS 3 Zrotation Yrotation Xrotation
						JOINT RightForeArm
						{
							OFFSET -5.241900 -0.000000 -0.000000
							CHANNELS 3 Zrotation Yrotation Xrotation
							JOINT RightHand
							{
								OFFSET -3.444170 -0.000000 -0.000000
								CHANNELS 3 Zrotation Yrotation Xrotation
								JOINT RightFingerBase
								{
									OFFSET 0.000000 0.000000 0.000000
									CHANNELS 3 Zrotation Yrotation Xrotation
									JOINT RightHandIndex1
									{
										OFFSET -0.622530 -0.000000 -0.000000
										CHANNELS 3 Zrotation Yrotation Xrotation
										End Site
										{
											OFFSET 0.000000 0.000000 0.000000
										}
									}
								}
								JOINT RThumb
								{
									OFFSET 0.000000 0.000000 0.000000
									CHANNELS 3 Zrotation Yrotation Xrotation
									End Site
									{
										OFFSET 0.000000 0.000000 0.000000
									}
								}
							}
						}
					}
				}
			}
		}
	}
}
MOTION
Frames: 6
Frame Time: 0.008333
-6.045548 18.125894 3.684320 -4.243050 34.650016 8.502340 -2.207570 2.859481 2.779356 2.677159 13.021369 -9.370278 2.920881 9.369008 27.506764 -2.448698 22.676081 22.494482 2.947700 -10.610000 -30.975400 5.249527 0.168810 -0.620892 16.368755 22.876975 -19.724620 -1.893598 -8.680561 26.253627 -1.073473 22.838437 14.726641 -2.815900 -10.390800 30.251800 -14.202608 -11.155023 0.813562 -10.424453 -15.431118 -4.471196 6.346990 -7.541072 1.030510 0.038913 23.901389 -2.860960 -9.108134 32.241852 4.382544 -1.572600 14.762900 6.338100 1.385790 3.992254 -1.172680 166.141939 -37.491365 -174.945487 22.797441 -31.016545 -6.258302 0.544840 0.203162 1.883658 27.410990 -3.214772 -1.761700 -7.125000 0.000000 0.000000 -0.395700 -63.919700 -179.818600 1.931311 -6.103473 -0.848802 32.926430 49.376413 -24.142597 -128.785006 54.501745 -90.455370 0.397972 -0.561236 3.710074 -64.126703 11.907323 -25.204100 7.125000 0.000000 0.000000 -23.172300 -3.642100 -23.720200 
-6.043740 18.130315 3.671057 -4.303233 34.646778 8.490925 -2.198695 2.854572 2.776530 2.685528 13.078525 -9.513836 2.936305 9.394753 27.588657 -2.299929 22.329697 22.931366 3.078100 -10.820400 -31.676400 5.259655 0.166285 -0.616197 16.376374 22.941595 -19.712626 -1.889605 -8.659155 26.189965 -1.074909 22.839095 14.375734 -2.635900 -10.081000 29.239300 -14.168666 -11.259310 0.914848 -10.216568 -15.567637 -4.348998 6.420023 -7.626543 1.076766 -0.641458 23.989961 -3.510541 -8.951265 32.438821 4.484496 -1.393100 14.806500 6.360600 1.376993 4.031455 -1.161974 165.635825 -37.777643 -174.561566 22.779885 -30.956792 -6.241103 0.549389 0.207843 2.056364 27.480267 -3.253553 -1.790400 -7.125000 0.000000 0.000000 -0.496400 -63.974600 -179.771800 1.961548 -6.098872 -0.826204 32.403106 49.810608 -24.266880 -128.426553 54.611963 -90.167855 0.398716 -0.551761 3.622203 -64.306838 11.448761 -24.594300 7.125000 0.000000 0.000000 -23.408900 -4.345900 -23.680400 
-6.045247 18.134234 3.657593 -4.394153 34.620627 8.430956 -2.186518 2.855965 2.771750 2.741158 13.184091 -9.627952 2.953633 9.418688 27.676916 -2.166722 21.959514 23.258412 3.173100 -10.970100 -32.179100 5.263781 0.160239 -0.615867 16.444029 23.012316 -19.652090 -1.876468 -8.627555 26.095624 -1.083813 22.749060 14.260648 -2.538200 -9.907100 28.676300 -14.158092 -11.229318 1.039379 -10.197834 -15.545977 -4.312213 6.446445 -7.614621 1.014981 -0.650212 24.005939 -3.494980 -8.942163 32.475511 4.552521 -1.384500 14.820600 6.378600 1.375446 4.035511 -1.159502 165.612782 -37.835262 -174.600401 22.759901 -30.929756 -6.228795 0.548135 0.210328 1.895579 27.418965 -3.222665 -1.770400 -7.125000 0.000000 0.000000 -0.404000 -63.938700 -179.814600 1.961472 -6.097920 -0.836829 32.248452 49.759210 -24.317551 -128.292327 54.656151 -90.068825 0.402504 -0.545269 3.713526 -64.105349 10.227504 -22.275300 7.125000 0.000000 0.000000 -23.698800 -6.729200 -22.862800 
-6.048261 18.134334 3.643627 -4.433235 34.615792 8.421985 -2.176072 2.855536 2.763887 2.773286 13.376857 -9.799063 2.967761 9.440489 27.767373 -2.042879 21.529032 23.482357 3.218600 -11.040800 -32.417500 5.264712 0.156193 -0.618874 16.452854 23.101762 -19.636301 -1.853801 -8.583085 25.976795 -1.103697 22.524236 14.521227 -2.595300 -10.009200 29.006600 -14.200267 -11.159124 1.126214 -10.281120 -15.469544 -4.303123 6.449923 -7.568802 0.953890 -0.373341 23.970846 -3.193641 -9.030709 32.401525 4.542573 -1.465200 14.803600 6.377800 1.378251 4.022381 -1.165190 165.884300 -37.778761 -174.958314 22.649750 -30.823956 -6.178797 0.550490 0.207669 1.778971 27.638869 -3.359798 -1.855600 -7.125000 0.000000 0.000000 -0.738100 -64.096000 -179.658500 1.950357 -6.099937 -0.853196 32.379260 49.560855 -24.335995 -128.364360 54.635918 -90.128977 0.404191 -0.547686 3.104770 -63.830188 10.535800 -22.566900 7.125000 0.000000 0.000000 -23.453100 -6.345700 -22.765900 
-6.050472 18.132325 3.626947 -4.480977 34.642445 8.424384 -2.164625 2.849828 2.757880 2.791191 13.500107 -9.968015 2.980781 9.468296 27.874426 -1.940022 21.123833 23.625955 3.267600 -11.116100 -32.672500 5.269254 0.153950 -0.622325 16.440553 23.214974 -19.650648 -1.829771 -8.533700 25.852122 -1.127163 22.257925 14.870671 -2.732000 -10.248100 29.783800 -14.204213 -11.135722 1.199315 -10.291799 -15.447729 -4.267824 6.457256 -7.557136 0.926410 -0.402949 23.958877 -3.136611 -9.028260 32.386559 4.562406 -1.470500 14.796900 6.371200 1.378504 4.024391 -1.175964 165.929948 -37.728287 -175.157587 22.484538 -30.632036 -6.091859 0.549427 0.210308 1.804820 27.582314 -3.297387 -1.820900 -7.125000 0.000000 0.000000 -0.652300 -64.027300 -179.699200 1.952010 -6.099230 -0.849908 32.449685 49.592962 -24.338574 -128.338175 54.646671 -90.102516 0.403283 -0.548806 1.964142 -63.850596 11.857518 -24.833700 7.125000 0.000000 0.000000 -23.039300 -3.944300 -23.417800 
-6.054692 18.131521 3.606349 -4.601972 34.699136 8.371504 -2.149520 2.843844 2.754900 2.849738 13.519729 -10.103396 2.989652 9.492112 27.960712 -1.839791 20.747891 23.791470 3.370200 -11.271500 -33.201300 5.274036 0.148356 -0.628196 16.486506 23.367857 -19.659114 -1.814144 -8.496903 25.771469 -1.157935 21.889648 15.212464 -2.888800 -10.512800 30.653700 -14.158549 -11.063290 1.314422 -10.343036 -15.369636 -4.215237 6.435921 -7.514589 0.850059 -0.266165 23.938777 -2.982956 -9.040767 32.344806 4.568284 -1.504300 14.787900 6.368300 1.381048 4.018855 -1.192710 166.009585 -37.559344 -175.303766 22.375700 -30.502346 -6.026786 0.537177 0.217827 1.833924 26.970121 -2.797538 -1.528000 -7.125000 0.000000 0.000000 0.253100 -63.453900 179.886700 1.948029 -6.099004 -0.853412 32.591043 49.496121 -24.232603 -128.133729 54.721322 -89.929805 0.402657 -0.542264 1.201265 -64.155918 12.336023 -25.932200 7.125000 0.000000 0.000000 -23.045300 -2.868700 -23.917000 
